M48
; DRILL file {KiCad (5.1.5)-3} date 2020-08-11 오후 8:18:39
; FORMAT={-:-/ absolute / metric / decimal}
; #@! TF.CreationDate,2020-08-11T20:18:39+09:00
; #@! TF.GenerationSoftware,Kicad,Pcbnew,(5.1.5)-3
; #@! TF.FileFunction,Plated,1,2,PTH
FMAT,2
METRIC
T1C0.400
T2C0.800
T3C0.900
T4C1.000
T5C1.100
T6C1.200
T7C1.300
T8C1.400
T9C1.500
T10C2.100
%
G90
G05
T1
X62.4Y-23.0
X67.5Y-34.0
X73.9Y-22.7
X77.0Y-15.8
X77.0Y-34.0
X79.0Y-48.0
X79.4Y-20.3
X82.3Y-24.7
X87.725Y-20.3
X90.5Y-16.7
X90.5Y-37.2
X98.0Y-47.0
X122.0Y-80.0
X132.18Y-23.58
X138.4Y-60.5
X147.1Y-50.2
X147.5Y-80.6
X149.3Y-29.7
X149.63Y-55.89
X150.0Y-5.0
X153.445Y-65.35
X160.0Y-80.0
X160.1Y-53.4
X162.4Y-63.05
X170.0Y-15.0
X180.0Y-5.0
X180.0Y-15.0
X185.0Y-75.0
T2
X216.0Y-69.8
X216.0Y-72.4
X219.2Y-69.8
X219.2Y-72.4
X222.4Y-69.8
X222.4Y-72.4
X72.005Y-31.88
X82.165Y-31.88
X72.105Y-24.68
X77.105Y-24.68
X221.8Y-87.3
X223.8Y-87.3
X113.6Y-34.965
X113.6Y-45.125
X147.8Y-32.52
X147.8Y-37.6
X150.34Y-35.06
X144.2Y-73.7
X154.36Y-73.7
X109.9Y-62.92
X109.9Y-68.0
X112.44Y-65.46
X86.8Y-41.86
X86.8Y-44.4
X86.8Y-46.94
X203.2Y-70.9
X203.2Y-81.06
X98.1Y-24.0
X98.1Y-26.0
X112.1Y-18.5
X112.1Y-21.04
X112.1Y-23.58
X92.456Y-24.003
X92.456Y-34.163
X72.005Y-28.28
X82.165Y-28.28
X94.5Y-41.5
X94.5Y-51.66
X90.455Y-19.975
X98.075Y-19.975
X120.66Y-32.46
X120.66Y-37.54
X123.2Y-35.0
X154.94Y-80.9
X165.1Y-80.9
X151.0Y-18.5
X151.0Y-21.04
X151.0Y-23.58
X159.3Y-50.9
X159.3Y-55.9
X139.6Y-43.7
X139.6Y-46.2
X167.4Y-37.1
X177.56Y-37.1
X72.045Y-35.48
X82.205Y-35.48
X167.4Y-42.1
X172.4Y-42.1
X154.94Y-77.4
X165.1Y-77.4
X109.9Y-73.22
X109.9Y-78.3
X112.44Y-75.76
X177.0Y-80.8
X177.0Y-82.8
X161.862Y-43.9
X161.862Y-45.9
X104.925Y-34.99
X104.925Y-45.15
X125.6Y-64.4
X130.6Y-64.4
X143.1Y-80.2
X145.1Y-80.2
X125.6Y-58.6
X130.6Y-58.6
X167.4Y-32.3
X177.56Y-32.3
X214.2Y-87.3
X216.7Y-87.3
X163.0Y-29.74
X163.0Y-39.9
X88.1Y-24.0
X88.1Y-26.0
X172.0Y-75.4
X172.0Y-85.56
X86.78Y-37.2
X94.4Y-37.2
X109.9Y-52.62
X109.9Y-57.7
X112.44Y-55.16
X150.1Y-79.4
X150.1Y-81.94
X150.1Y-84.48
X136.4Y-32.52
X136.4Y-37.6
X138.94Y-35.06
X128.85Y-81.05
X139.01Y-81.05
X154.4Y-43.7
X154.4Y-46.2
X124.7Y-43.7
X124.7Y-46.2
X167.3Y-52.48
X167.3Y-60.1
X182.54Y-52.48
X182.54Y-60.1
X72.045Y-52.007
X82.205Y-52.007
X219.0Y-93.6
X224.0Y-93.6
X98.1Y-29.4
X98.1Y-39.56
X128.84Y-77.4
X139.0Y-77.4
X128.84Y-84.8
X139.0Y-84.8
X177.0Y-73.1
X177.0Y-75.1
X89.3Y-49.7
X89.3Y-51.7
X66.305Y-40.907
X68.305Y-40.907
X157.3Y-18.5
X157.3Y-21.04
X157.3Y-23.58
X72.045Y-44.407
X82.205Y-44.407
X156.1Y-29.74
X156.1Y-39.9
X159.02Y-72.1
X161.56Y-72.1
X164.1Y-72.1
X128.84Y-73.7
X139.0Y-73.7
X168.5Y-75.4
X168.5Y-85.56
X121.35Y-72.85
X121.35Y-75.35
X147.0Y-43.7
X147.0Y-46.2
X66.305Y-24.68
X68.305Y-24.68
X163.6Y-18.5
X163.6Y-21.04
X163.6Y-23.58
X196.1Y-70.94
X196.1Y-81.1
X72.045Y-48.407
X82.205Y-48.407
X72.01Y-40.907
X77.01Y-40.907
X167.4Y-45.9
X177.56Y-45.9
X154.94Y-84.4
X165.1Y-84.4
X132.2Y-43.7
X132.2Y-46.2
X138.7Y-50.9
X138.7Y-55.9
X125.6Y-52.9
X130.6Y-52.9
X118.5Y-18.5
X118.5Y-21.04
X118.5Y-23.58
X86.741Y-29.3
X86.741Y-31.84
X86.741Y-34.38
T4
X58.42Y-38.1
X58.42Y-40.64
X58.42Y-43.18
X58.42Y-45.72
X223.75Y-45.98
X223.75Y-48.52
X223.75Y-51.06
X223.75Y-53.6
X55.88Y-2.54
X55.88Y-5.08
X55.88Y-7.62
X55.88Y-10.16
X55.88Y-12.7
X58.42Y-2.54
X58.42Y-5.08
X58.42Y-7.62
X58.42Y-10.16
X58.42Y-12.7
X50.8Y-33.02
X58.42Y-17.78
X58.42Y-20.32
X50.8Y-25.4
X50.8Y-30.48
X135.0Y-89.6
X137.54Y-89.6
X140.08Y-89.6
X142.62Y-89.6
X145.16Y-89.6
X147.7Y-89.6
X150.24Y-89.6
X152.78Y-89.6
X155.32Y-89.6
X98.66Y-89.6
X101.2Y-89.6
X50.8Y-27.94
X109.22Y-38.1
X109.22Y-40.64
X109.22Y-43.18
X109.22Y-45.72
X109.22Y-2.54
X109.22Y-5.08
X109.22Y-7.62
X109.22Y-10.16
X109.22Y-12.7
X111.76Y-2.54
X111.76Y-5.08
X111.76Y-7.62
X111.76Y-10.16
X111.76Y-12.7
X109.8Y-89.6
X112.34Y-89.6
X114.88Y-89.6
X117.42Y-89.6
X119.96Y-89.6
X122.5Y-89.6
X125.04Y-89.6
T5
X25.1Y-6.5
X161.3Y-6.5
T6
X206.45Y-17.7
X206.45Y-55.52
X93.55Y-7.15
X93.55Y-9.65
X100.05Y-7.15
X100.05Y-9.65
X216.66Y-81.7
X219.2Y-81.7
X221.74Y-81.7
T7
X183.625Y-81.175
X188.625Y-81.175
X194.7Y-89.6
X199.7Y-89.6
T9
X126.5Y-12.6
X126.5Y-17.6
X129.0Y-3.1
X129.0Y-15.1
X134.0Y-12.6
X134.0Y-17.6
X139.0Y-3.1
X139.0Y-15.1
X141.5Y-12.6
X141.5Y-17.6
T10
X73.25Y-2.0
X64.35Y-2.0
T2
G00X89.95Y-2.6
M15
G01X89.95Y-5.1
M16
G05
G00X103.65Y-2.6
M15
G01X103.65Y-5.1
M16
G05
G00X81.15Y-2.8
M15
G01X82.55Y-2.8
M16
G05
G00X81.15Y-9.0
M15
G01X82.55Y-9.0
M16
G05
G00X81.15Y-14.6
M15
G01X82.55Y-14.6
M16
G05
G00X83.15Y-5.3
M15
G01X84.55Y-5.3
M16
G05
G00X83.15Y-10.9
M15
G01X84.55Y-10.9
M16
G05
T3
G00X65.05Y-9.1
M15
G01X65.05Y-10.9
M16
G05
G00X72.55Y-9.1
M15
G01X72.55Y-10.9
M16
G05
T5
G00X21.05Y-4.0
M15
G01X22.15Y-4.0
M16
G05
G00X21.05Y-6.5
M15
G01X22.15Y-6.5
M16
G05
G00X25.1Y-4.0
M15
G01X25.1Y-4.0
M16
G05
G00X28.05Y-4.0
M15
G01X29.15Y-4.0
M16
G05
G00X28.05Y-6.5
M15
G01X29.15Y-6.5
M16
G05
G00X157.25Y-4.0
M15
G01X158.35Y-4.0
M16
G05
G00X157.25Y-6.5
M15
G01X158.35Y-6.5
M16
G05
G00X161.3Y-4.0
M15
G01X161.3Y-4.0
M16
G05
G00X164.25Y-4.0
M15
G01X165.35Y-4.0
M16
G05
G00X164.25Y-6.5
M15
G01X165.35Y-6.5
M16
G05
T6
G00X95.75Y-2.5
M15
G01X97.85Y-2.5
M16
G05
G00X17.5Y-2.1
M15
G01X18.2Y-2.1
M16
G05
G00X17.5Y-8.4
M15
G01X18.2Y-8.4
M16
G05
G00X32.0Y-2.1
M15
G01X32.7Y-2.1
M16
G05
G00X32.0Y-8.4
M15
G01X32.7Y-8.4
M16
G05
G00X153.7Y-2.1
M15
G01X154.4Y-2.1
M16
G05
G00X153.7Y-8.4
M15
G01X154.4Y-8.4
M16
G05
G00X168.2Y-2.1
M15
G01X168.9Y-2.1
M16
G05
G00X168.2Y-8.4
M15
G01X168.9Y-8.4
M16
G05
T8
G00X69.45Y-5.0
M15
G01X68.15Y-5.0
M16
G05
T0
M30
