G04 #@! TF.GenerationSoftware,KiCad,Pcbnew,(5.1.5)-3*
G04 #@! TF.CreationDate,2020-08-11T20:18:41+09:00*
G04 #@! TF.ProjectId,CPC-400 Audio&Video Board Mk.II,4350432d-3430-4302-9041-7564696f2656,rev?*
G04 #@! TF.SameCoordinates,Original*
G04 #@! TF.FileFunction,Legend,Bot*
G04 #@! TF.FilePolarity,Positive*
%FSLAX46Y46*%
G04 Gerber Fmt 4.6, Leading zero omitted, Abs format (unit mm)*
G04 Created by KiCad (PCBNEW (5.1.5)-3) date 2020-08-11 20:18:41*
%MOMM*%
%LPD*%
G04 APERTURE LIST*
%ADD10C,0.300000*%
%ADD11C,0.200000*%
%ADD12C,0.120000*%
%ADD13C,0.150000*%
G04 APERTURE END LIST*
D10*
X54263214Y-86282142D02*
X53120357Y-86282142D01*
X51602500Y-86710714D02*
X51682857Y-86782142D01*
X51906071Y-86853571D01*
X52048928Y-86853571D01*
X52254285Y-86782142D01*
X52379285Y-86639285D01*
X52432857Y-86496428D01*
X52468571Y-86210714D01*
X52441785Y-85996428D01*
X52334642Y-85710714D01*
X52245357Y-85567857D01*
X52084642Y-85425000D01*
X51861428Y-85353571D01*
X51718571Y-85353571D01*
X51513214Y-85425000D01*
X51450714Y-85496428D01*
X50995357Y-86425000D02*
X50281071Y-86425000D01*
X51191785Y-86853571D02*
X50504285Y-85353571D01*
X50191785Y-86853571D01*
X49504285Y-85353571D02*
X49656071Y-86567857D01*
X49602500Y-86710714D01*
X49540000Y-86782142D01*
X49406071Y-86853571D01*
X49120357Y-86853571D01*
X48968571Y-86782142D01*
X48888214Y-86710714D01*
X48798928Y-86567857D01*
X48647142Y-85353571D01*
X48147142Y-85353571D02*
X47290000Y-85353571D01*
X47906071Y-86853571D02*
X47718571Y-85353571D01*
X46977500Y-86853571D02*
X46790000Y-85353571D01*
X45790000Y-85353571D02*
X45504285Y-85353571D01*
X45370357Y-85425000D01*
X45245357Y-85567857D01*
X45209642Y-85853571D01*
X45272142Y-86353571D01*
X45379285Y-86639285D01*
X45540000Y-86782142D01*
X45691785Y-86853571D01*
X45977500Y-86853571D01*
X46111428Y-86782142D01*
X46236428Y-86639285D01*
X46272142Y-86353571D01*
X46209642Y-85853571D01*
X46102500Y-85567857D01*
X45941785Y-85425000D01*
X45790000Y-85353571D01*
X44691785Y-86853571D02*
X44504285Y-85353571D01*
X43834642Y-86853571D01*
X43647142Y-85353571D01*
X43048928Y-86282142D02*
X41906071Y-86282142D01*
X72370357Y-89403571D02*
X72182857Y-87903571D01*
X71825714Y-87903571D01*
X71620357Y-87975000D01*
X71495357Y-88117857D01*
X71441785Y-88260714D01*
X71406071Y-88546428D01*
X71432857Y-88760714D01*
X71540000Y-89046428D01*
X71629285Y-89189285D01*
X71790000Y-89332142D01*
X72013214Y-89403571D01*
X72370357Y-89403571D01*
X70397142Y-87903571D02*
X70111428Y-87903571D01*
X69977500Y-87975000D01*
X69852500Y-88117857D01*
X69816785Y-88403571D01*
X69879285Y-88903571D01*
X69986428Y-89189285D01*
X70147142Y-89332142D01*
X70298928Y-89403571D01*
X70584642Y-89403571D01*
X70718571Y-89332142D01*
X70843571Y-89189285D01*
X70879285Y-88903571D01*
X70816785Y-88403571D01*
X70709642Y-88117857D01*
X70548928Y-87975000D01*
X70397142Y-87903571D01*
X68156071Y-89403571D02*
X67968571Y-87903571D01*
X67298928Y-89403571D01*
X67111428Y-87903571D01*
X66111428Y-87903571D02*
X65825714Y-87903571D01*
X65691785Y-87975000D01*
X65566785Y-88117857D01*
X65531071Y-88403571D01*
X65593571Y-88903571D01*
X65700714Y-89189285D01*
X65861428Y-89332142D01*
X66013214Y-89403571D01*
X66298928Y-89403571D01*
X66432857Y-89332142D01*
X66557857Y-89189285D01*
X66593571Y-88903571D01*
X66531071Y-88403571D01*
X66423928Y-88117857D01*
X66263214Y-87975000D01*
X66111428Y-87903571D01*
X65039999Y-87903571D02*
X64182857Y-87903571D01*
X64798928Y-89403571D02*
X64611428Y-87903571D01*
X62513214Y-89403571D02*
X62647142Y-89332142D01*
X62709642Y-89260714D01*
X62763214Y-89117857D01*
X62709642Y-88689285D01*
X62620357Y-88546428D01*
X62540000Y-88475000D01*
X62388214Y-88403571D01*
X62173928Y-88403571D01*
X62040000Y-88475000D01*
X61977500Y-88546428D01*
X61923928Y-88689285D01*
X61977499Y-89117857D01*
X62066785Y-89260714D01*
X62147142Y-89332142D01*
X62298928Y-89403571D01*
X62513214Y-89403571D01*
X61245357Y-88403571D02*
X61432857Y-89903571D01*
X61254285Y-88475000D02*
X61102499Y-88403571D01*
X60816785Y-88403571D01*
X60682857Y-88475000D01*
X60620357Y-88546428D01*
X60566785Y-88689285D01*
X60620357Y-89117857D01*
X60709642Y-89260714D01*
X60790000Y-89332142D01*
X60941785Y-89403571D01*
X61227499Y-89403571D01*
X61361428Y-89332142D01*
X59432857Y-89332142D02*
X59584642Y-89403571D01*
X59870357Y-89403571D01*
X60004285Y-89332142D01*
X60057857Y-89189285D01*
X59986428Y-88617857D01*
X59897142Y-88475000D01*
X59745357Y-88403571D01*
X59459642Y-88403571D01*
X59325714Y-88475000D01*
X59272142Y-88617857D01*
X59289999Y-88760714D01*
X60022142Y-88903571D01*
X58727499Y-89403571D02*
X58602499Y-88403571D01*
X58638214Y-88689285D02*
X58548928Y-88546428D01*
X58468571Y-88475000D01*
X58316785Y-88403571D01*
X58173928Y-88403571D01*
X57156071Y-89403571D02*
X57057857Y-88617857D01*
X57111428Y-88475000D01*
X57245357Y-88403571D01*
X57531071Y-88403571D01*
X57682857Y-88475000D01*
X57147142Y-89332142D02*
X57298928Y-89403571D01*
X57656071Y-89403571D01*
X57790000Y-89332142D01*
X57843571Y-89189285D01*
X57825714Y-89046428D01*
X57736428Y-88903571D01*
X57584642Y-88832142D01*
X57227500Y-88832142D01*
X57075714Y-88760714D01*
X56531071Y-88403571D02*
X55959642Y-88403571D01*
X56254285Y-87903571D02*
X56415000Y-89189285D01*
X56361428Y-89332142D01*
X56227500Y-89403571D01*
X56084642Y-89403571D01*
X55004285Y-89332142D02*
X55156071Y-89403571D01*
X55441785Y-89403571D01*
X55575714Y-89332142D01*
X55629285Y-89189285D01*
X55557857Y-88617857D01*
X55468571Y-88475000D01*
X55316785Y-88403571D01*
X55031071Y-88403571D01*
X54897142Y-88475000D01*
X54843571Y-88617857D01*
X54861428Y-88760714D01*
X55593571Y-88903571D01*
X53218571Y-89332142D02*
X53084642Y-89403571D01*
X52798928Y-89403571D01*
X52647142Y-89332142D01*
X52557857Y-89189285D01*
X52548928Y-89117857D01*
X52602500Y-88975000D01*
X52736428Y-88903571D01*
X52950714Y-88903571D01*
X53084642Y-88832142D01*
X53138214Y-88689285D01*
X53129285Y-88617857D01*
X53040000Y-88475000D01*
X52888214Y-88403571D01*
X52673928Y-88403571D01*
X52540000Y-88475000D01*
X51959642Y-88403571D02*
X51798928Y-89403571D01*
X51423928Y-88689285D01*
X51227500Y-89403571D01*
X50816785Y-88403571D01*
X50370357Y-89403571D02*
X50245357Y-88403571D01*
X50182857Y-87903571D02*
X50263214Y-87975000D01*
X50200714Y-88046428D01*
X50120357Y-87975000D01*
X50182857Y-87903571D01*
X50200714Y-88046428D01*
X49745357Y-88403571D02*
X49173928Y-88403571D01*
X49468571Y-87903571D02*
X49629285Y-89189285D01*
X49575714Y-89332142D01*
X49441785Y-89403571D01*
X49298928Y-89403571D01*
X48147142Y-89332142D02*
X48298928Y-89403571D01*
X48584642Y-89403571D01*
X48718571Y-89332142D01*
X48781071Y-89260714D01*
X48834642Y-89117857D01*
X48781071Y-88689285D01*
X48691785Y-88546428D01*
X48611428Y-88475000D01*
X48459642Y-88403571D01*
X48173928Y-88403571D01*
X48040000Y-88475000D01*
X47513214Y-89403571D02*
X47325714Y-87903571D01*
X46870357Y-89403571D02*
X46772142Y-88617857D01*
X46825714Y-88475000D01*
X46959642Y-88403571D01*
X47173928Y-88403571D01*
X47325714Y-88475000D01*
X47406071Y-88546428D01*
X45575714Y-89332142D02*
X45727500Y-89403571D01*
X46013214Y-89403571D01*
X46147142Y-89332142D01*
X46200714Y-89189285D01*
X46129285Y-88617857D01*
X46040000Y-88475000D01*
X45888214Y-88403571D01*
X45602500Y-88403571D01*
X45468571Y-88475000D01*
X45415000Y-88617857D01*
X45432857Y-88760714D01*
X46165000Y-88903571D01*
X44932857Y-89332142D02*
X44798928Y-89403571D01*
X44513214Y-89403571D01*
X44361428Y-89332142D01*
X44272142Y-89189285D01*
X44263214Y-89117857D01*
X44316785Y-88975000D01*
X44450714Y-88903571D01*
X44665000Y-88903571D01*
X44798928Y-88832142D01*
X44852499Y-88689285D01*
X44843571Y-88617857D01*
X44754285Y-88475000D01*
X44602500Y-88403571D01*
X44388214Y-88403571D01*
X44254285Y-88475000D01*
X41870357Y-89403571D02*
X41682857Y-87903571D01*
X41861428Y-89332142D02*
X42013214Y-89403571D01*
X42298928Y-89403571D01*
X42432857Y-89332142D01*
X42495357Y-89260714D01*
X42548928Y-89117857D01*
X42495357Y-88689285D01*
X42406071Y-88546428D01*
X42325714Y-88475000D01*
X42173928Y-88403571D01*
X41888214Y-88403571D01*
X41754285Y-88475000D01*
X40388214Y-88403571D02*
X40513214Y-89403571D01*
X41031071Y-88403571D02*
X41129285Y-89189285D01*
X41075714Y-89332142D01*
X40941785Y-89403571D01*
X40727500Y-89403571D01*
X40575714Y-89332142D01*
X40495357Y-89260714D01*
X39798928Y-89403571D02*
X39673928Y-88403571D01*
X39709642Y-88689285D02*
X39620357Y-88546428D01*
X39540000Y-88475000D01*
X39388214Y-88403571D01*
X39245357Y-88403571D01*
X38870357Y-89403571D02*
X38745357Y-88403571D01*
X38682857Y-87903571D02*
X38763214Y-87975000D01*
X38700714Y-88046428D01*
X38620357Y-87975000D01*
X38682857Y-87903571D01*
X38700714Y-88046428D01*
X38031071Y-88403571D02*
X38156071Y-89403571D01*
X38048928Y-88546428D02*
X37968571Y-88475000D01*
X37816785Y-88403571D01*
X37602500Y-88403571D01*
X37468571Y-88475000D01*
X37415000Y-88617857D01*
X37513214Y-89403571D01*
X36031071Y-88403571D02*
X36182857Y-89617857D01*
X36272142Y-89760714D01*
X36352500Y-89832142D01*
X36504285Y-89903571D01*
X36718571Y-89903571D01*
X36852500Y-89832142D01*
X36147142Y-89332142D02*
X36298928Y-89403571D01*
X36584642Y-89403571D01*
X36718571Y-89332142D01*
X36781071Y-89260714D01*
X36834642Y-89117857D01*
X36781071Y-88689285D01*
X36691785Y-88546428D01*
X36611428Y-88475000D01*
X36459642Y-88403571D01*
X36173928Y-88403571D01*
X36040000Y-88475000D01*
X34173928Y-88403571D02*
X34361428Y-89903571D01*
X34182857Y-88475000D02*
X34031071Y-88403571D01*
X33745357Y-88403571D01*
X33611428Y-88475000D01*
X33548928Y-88546428D01*
X33495357Y-88689285D01*
X33548928Y-89117857D01*
X33638214Y-89260714D01*
X33718571Y-89332142D01*
X33870357Y-89403571D01*
X34156071Y-89403571D01*
X34290000Y-89332142D01*
X32727500Y-89403571D02*
X32861428Y-89332142D01*
X32923928Y-89260714D01*
X32977500Y-89117857D01*
X32923928Y-88689285D01*
X32834642Y-88546428D01*
X32754285Y-88475000D01*
X32602500Y-88403571D01*
X32388214Y-88403571D01*
X32254285Y-88475000D01*
X32191785Y-88546428D01*
X32138214Y-88689285D01*
X32191785Y-89117857D01*
X32281071Y-89260714D01*
X32361428Y-89332142D01*
X32513214Y-89403571D01*
X32727500Y-89403571D01*
X31602499Y-88403571D02*
X31441785Y-89403571D01*
X31066785Y-88689285D01*
X30870357Y-89403571D01*
X30459642Y-88403571D01*
X29432857Y-89332142D02*
X29584642Y-89403571D01*
X29870357Y-89403571D01*
X30004285Y-89332142D01*
X30057857Y-89189285D01*
X29986428Y-88617857D01*
X29897142Y-88475000D01*
X29745357Y-88403571D01*
X29459642Y-88403571D01*
X29325714Y-88475000D01*
X29272142Y-88617857D01*
X29290000Y-88760714D01*
X30022142Y-88903571D01*
X28727500Y-89403571D02*
X28602500Y-88403571D01*
X28638214Y-88689285D02*
X28548928Y-88546428D01*
X28468571Y-88475000D01*
X28316785Y-88403571D01*
X28173928Y-88403571D01*
X27727500Y-88832142D02*
X26584642Y-88832142D01*
X25727500Y-89403571D02*
X25861428Y-89332142D01*
X25923928Y-89260714D01*
X25977500Y-89117857D01*
X25923928Y-88689285D01*
X25834642Y-88546428D01*
X25754285Y-88475000D01*
X25602500Y-88403571D01*
X25388214Y-88403571D01*
X25254285Y-88475000D01*
X25191785Y-88546428D01*
X25138214Y-88689285D01*
X25191785Y-89117857D01*
X25281071Y-89260714D01*
X25361428Y-89332142D01*
X25513214Y-89403571D01*
X25727500Y-89403571D01*
X24459642Y-88403571D02*
X24584642Y-89403571D01*
X24477500Y-88546428D02*
X24397142Y-88475000D01*
X24245357Y-88403571D01*
X24031071Y-88403571D01*
X23897142Y-88475000D01*
X23843571Y-88617857D01*
X23941785Y-89403571D01*
X58593571Y-93717857D02*
X59093571Y-93717857D01*
X59191785Y-94503571D02*
X59004285Y-93003571D01*
X58290000Y-93003571D01*
X57906071Y-94503571D02*
X57781071Y-93503571D01*
X57718571Y-93003571D02*
X57798928Y-93075000D01*
X57736428Y-93146428D01*
X57656071Y-93075000D01*
X57718571Y-93003571D01*
X57736428Y-93146428D01*
X57066785Y-93503571D02*
X57191785Y-94503571D01*
X57084642Y-93646428D02*
X57004285Y-93575000D01*
X56852500Y-93503571D01*
X56638214Y-93503571D01*
X56504285Y-93575000D01*
X56450714Y-93717857D01*
X56548928Y-94503571D01*
X55191785Y-94503571D02*
X55093571Y-93717857D01*
X55147142Y-93575000D01*
X55281071Y-93503571D01*
X55566785Y-93503571D01*
X55718571Y-93575000D01*
X55182857Y-94432142D02*
X55334642Y-94503571D01*
X55691785Y-94503571D01*
X55825714Y-94432142D01*
X55879285Y-94289285D01*
X55861428Y-94146428D01*
X55772142Y-94003571D01*
X55620357Y-93932142D01*
X55263214Y-93932142D01*
X55111428Y-93860714D01*
X54263214Y-94503571D02*
X54397142Y-94432142D01*
X54450714Y-94289285D01*
X54290000Y-93003571D01*
X51691785Y-94503571D02*
X52102500Y-93789285D01*
X52548928Y-94503571D02*
X52361428Y-93003571D01*
X51790000Y-93003571D01*
X51656071Y-93075000D01*
X51593571Y-93146428D01*
X51540000Y-93289285D01*
X51566785Y-93503571D01*
X51656071Y-93646428D01*
X51736428Y-93717857D01*
X51888214Y-93789285D01*
X52459642Y-93789285D01*
X50468571Y-94432142D02*
X50620357Y-94503571D01*
X50906071Y-94503571D01*
X51040000Y-94432142D01*
X51093571Y-94289285D01*
X51022142Y-93717857D01*
X50932857Y-93575000D01*
X50781071Y-93503571D01*
X50495357Y-93503571D01*
X50361428Y-93575000D01*
X50307857Y-93717857D01*
X50325714Y-93860714D01*
X51057857Y-94003571D01*
X49548928Y-94503571D02*
X49682857Y-94432142D01*
X49736428Y-94289285D01*
X49575714Y-93003571D01*
X48397142Y-94432142D02*
X48548928Y-94503571D01*
X48834642Y-94503571D01*
X48968571Y-94432142D01*
X49022142Y-94289285D01*
X48950714Y-93717857D01*
X48861428Y-93575000D01*
X48709642Y-93503571D01*
X48423928Y-93503571D01*
X48290000Y-93575000D01*
X48236428Y-93717857D01*
X48254285Y-93860714D01*
X48986428Y-94003571D01*
X47048928Y-94503571D02*
X46950714Y-93717857D01*
X47004285Y-93575000D01*
X47138214Y-93503571D01*
X47423928Y-93503571D01*
X47575714Y-93575000D01*
X47040000Y-94432142D02*
X47191785Y-94503571D01*
X47548928Y-94503571D01*
X47682857Y-94432142D01*
X47736428Y-94289285D01*
X47718571Y-94146428D01*
X47629285Y-94003571D01*
X47477500Y-93932142D01*
X47120357Y-93932142D01*
X46968571Y-93860714D01*
X46397142Y-94432142D02*
X46263214Y-94503571D01*
X45977500Y-94503571D01*
X45825714Y-94432142D01*
X45736428Y-94289285D01*
X45727500Y-94217857D01*
X45781071Y-94075000D01*
X45915000Y-94003571D01*
X46129285Y-94003571D01*
X46263214Y-93932142D01*
X46316785Y-93789285D01*
X46307857Y-93717857D01*
X46218571Y-93575000D01*
X46066785Y-93503571D01*
X45852500Y-93503571D01*
X45718571Y-93575000D01*
X44540000Y-94432142D02*
X44691785Y-94503571D01*
X44977500Y-94503571D01*
X45111428Y-94432142D01*
X45165000Y-94289285D01*
X45093571Y-93717857D01*
X45004285Y-93575000D01*
X44852500Y-93503571D01*
X44566785Y-93503571D01*
X44432857Y-93575000D01*
X44379285Y-93717857D01*
X44397142Y-93860714D01*
X45129285Y-94003571D01*
X42718571Y-93003571D02*
X42406071Y-94503571D01*
X41718571Y-93003571D01*
X40620357Y-94503571D02*
X41477500Y-94503571D01*
X41048928Y-94503571D02*
X40861428Y-93003571D01*
X41031071Y-93217857D01*
X41191785Y-93360714D01*
X41343571Y-93432142D01*
X39959642Y-94360714D02*
X39897142Y-94432142D01*
X39977500Y-94503571D01*
X40040000Y-94432142D01*
X39959642Y-94360714D01*
X39977500Y-94503571D01*
X39165000Y-93146428D02*
X39084642Y-93075000D01*
X38932857Y-93003571D01*
X38575714Y-93003571D01*
X38441785Y-93075000D01*
X38379285Y-93146428D01*
X38325714Y-93289285D01*
X38343571Y-93432142D01*
X38441785Y-93646428D01*
X39406071Y-94503571D01*
X38477500Y-94503571D01*
X37736428Y-93146428D02*
X37656071Y-93075000D01*
X37504285Y-93003571D01*
X37147142Y-93003571D01*
X37013214Y-93075000D01*
X36950714Y-93146428D01*
X36897142Y-93289285D01*
X36915000Y-93432142D01*
X37013214Y-93646428D01*
X37977500Y-94503571D01*
X37048928Y-94503571D01*
D11*
X99152380Y-87709523D02*
X98676190Y-87376190D01*
X99152380Y-87138095D02*
X98152380Y-87138095D01*
X98152380Y-87519047D01*
X98200000Y-87614285D01*
X98247619Y-87661904D01*
X98342857Y-87709523D01*
X98485714Y-87709523D01*
X98580952Y-87661904D01*
X98628571Y-87614285D01*
X98676190Y-87519047D01*
X98676190Y-87138095D01*
X101652380Y-87609523D02*
X101652380Y-87133333D01*
X100652380Y-87133333D01*
D10*
X231840000Y-3807142D02*
X231634642Y-3878571D01*
X231277500Y-3878571D01*
X231125714Y-3807142D01*
X231045357Y-3735714D01*
X230956071Y-3592857D01*
X230938214Y-3450000D01*
X230991785Y-3307142D01*
X231054285Y-3235714D01*
X231188214Y-3164285D01*
X231465000Y-3092857D01*
X231598928Y-3021428D01*
X231661428Y-2950000D01*
X231715000Y-2807142D01*
X231697142Y-2664285D01*
X231607857Y-2521428D01*
X231527500Y-2450000D01*
X231375714Y-2378571D01*
X231018571Y-2378571D01*
X230813214Y-2450000D01*
X230223928Y-2878571D02*
X230411428Y-4378571D01*
X230232857Y-2950000D02*
X230081071Y-2878571D01*
X229795357Y-2878571D01*
X229661428Y-2950000D01*
X229598928Y-3021428D01*
X229545357Y-3164285D01*
X229598928Y-3592857D01*
X229688214Y-3735714D01*
X229768571Y-3807142D01*
X229920357Y-3878571D01*
X230206071Y-3878571D01*
X230340000Y-3807142D01*
X228411428Y-3807142D02*
X228563214Y-3878571D01*
X228848928Y-3878571D01*
X228982857Y-3807142D01*
X229036428Y-3664285D01*
X228965000Y-3092857D01*
X228875714Y-2950000D01*
X228723928Y-2878571D01*
X228438214Y-2878571D01*
X228304285Y-2950000D01*
X228250714Y-3092857D01*
X228268571Y-3235714D01*
X229000714Y-3378571D01*
X227054285Y-3807142D02*
X227206071Y-3878571D01*
X227491785Y-3878571D01*
X227625714Y-3807142D01*
X227688214Y-3735714D01*
X227741785Y-3592857D01*
X227688214Y-3164285D01*
X227598928Y-3021428D01*
X227518571Y-2950000D01*
X227366785Y-2878571D01*
X227081071Y-2878571D01*
X226947142Y-2950000D01*
X226420357Y-3878571D02*
X226295357Y-2878571D01*
X226232857Y-2378571D02*
X226313214Y-2450000D01*
X226250714Y-2521428D01*
X226170357Y-2450000D01*
X226232857Y-2378571D01*
X226250714Y-2521428D01*
X225063214Y-3878571D02*
X224965000Y-3092857D01*
X225018571Y-2950000D01*
X225152500Y-2878571D01*
X225438214Y-2878571D01*
X225590000Y-2950000D01*
X225054285Y-3807142D02*
X225206071Y-3878571D01*
X225563214Y-3878571D01*
X225697142Y-3807142D01*
X225750714Y-3664285D01*
X225732857Y-3521428D01*
X225643571Y-3378571D01*
X225491785Y-3307142D01*
X225134642Y-3307142D01*
X224982857Y-3235714D01*
X224134642Y-3878571D02*
X224268571Y-3807142D01*
X224322142Y-3664285D01*
X224161428Y-2378571D01*
X222447142Y-2378571D02*
X221590000Y-2378571D01*
X222206071Y-3878571D02*
X222018571Y-2378571D01*
X221277500Y-3878571D02*
X221090000Y-2378571D01*
X220634642Y-3878571D02*
X220536428Y-3092857D01*
X220590000Y-2950000D01*
X220723928Y-2878571D01*
X220938214Y-2878571D01*
X221090000Y-2950000D01*
X221170357Y-3021428D01*
X219277500Y-3878571D02*
X219179285Y-3092857D01*
X219232857Y-2950000D01*
X219366785Y-2878571D01*
X219652500Y-2878571D01*
X219804285Y-2950000D01*
X219268571Y-3807142D02*
X219420357Y-3878571D01*
X219777500Y-3878571D01*
X219911428Y-3807142D01*
X219965000Y-3664285D01*
X219947142Y-3521428D01*
X219857857Y-3378571D01*
X219706071Y-3307142D01*
X219348928Y-3307142D01*
X219197142Y-3235714D01*
X218438214Y-2878571D02*
X218563214Y-3878571D01*
X218456071Y-3021428D02*
X218375714Y-2950000D01*
X218223928Y-2878571D01*
X218009642Y-2878571D01*
X217875714Y-2950000D01*
X217822142Y-3092857D01*
X217920357Y-3878571D01*
X217206071Y-3878571D02*
X217018571Y-2378571D01*
X216991785Y-3307142D02*
X216634642Y-3878571D01*
X216509642Y-2878571D02*
X217152500Y-3450000D01*
X216054285Y-3807142D02*
X215920357Y-3878571D01*
X215634642Y-3878571D01*
X215482857Y-3807142D01*
X215393571Y-3664285D01*
X215384642Y-3592857D01*
X215438214Y-3450000D01*
X215572142Y-3378571D01*
X215786428Y-3378571D01*
X215920357Y-3307142D01*
X215973928Y-3164285D01*
X215965000Y-3092857D01*
X215875714Y-2950000D01*
X215723928Y-2878571D01*
X215509642Y-2878571D01*
X215375714Y-2950000D01*
X213723928Y-2878571D02*
X213152500Y-2878571D01*
X213447142Y-2378571D02*
X213607857Y-3664285D01*
X213554285Y-3807142D01*
X213420357Y-3878571D01*
X213277500Y-3878571D01*
X212563214Y-3878571D02*
X212697142Y-3807142D01*
X212759642Y-3735714D01*
X212813214Y-3592857D01*
X212759642Y-3164285D01*
X212670357Y-3021428D01*
X212590000Y-2950000D01*
X212438214Y-2878571D01*
X212223928Y-2878571D01*
X212090000Y-2950000D01*
X212027500Y-3021428D01*
X211973928Y-3164285D01*
X212027500Y-3592857D01*
X212116785Y-3735714D01*
X212197142Y-3807142D01*
X212348928Y-3878571D01*
X212563214Y-3878571D01*
X210295357Y-3450000D02*
X209581071Y-3450000D01*
X210491785Y-3878571D02*
X209804285Y-2378571D01*
X209491785Y-3878571D01*
X209054285Y-3807142D02*
X208848928Y-3878571D01*
X208491785Y-3878571D01*
X208340000Y-3807142D01*
X208259642Y-3735714D01*
X208170357Y-3592857D01*
X208152500Y-3450000D01*
X208206071Y-3307142D01*
X208268571Y-3235714D01*
X208402500Y-3164285D01*
X208679285Y-3092857D01*
X208813214Y-3021428D01*
X208875714Y-2950000D01*
X208929285Y-2807142D01*
X208911428Y-2664285D01*
X208822142Y-2521428D01*
X208741785Y-2450000D01*
X208590000Y-2378571D01*
X208232857Y-2378571D01*
X208027500Y-2450000D01*
X207590000Y-2378571D02*
X206732857Y-2378571D01*
X207348928Y-3878571D02*
X207161428Y-2378571D01*
X206322142Y-3092857D02*
X205822142Y-3092857D01*
X205706071Y-3878571D02*
X206420357Y-3878571D01*
X206232857Y-2378571D01*
X205518571Y-2378571D01*
X204206071Y-3878571D02*
X204616785Y-3164285D01*
X205063214Y-3878571D02*
X204875714Y-2378571D01*
X204304285Y-2378571D01*
X204170357Y-2450000D01*
X204107857Y-2521428D01*
X204054285Y-2664285D01*
X204081071Y-2878571D01*
X204170357Y-3021428D01*
X204250714Y-3092857D01*
X204402500Y-3164285D01*
X204973928Y-3164285D01*
X203563214Y-3878571D02*
X203438214Y-2878571D01*
X203375714Y-2378571D02*
X203456071Y-2450000D01*
X203393571Y-2521428D01*
X203313214Y-2450000D01*
X203375714Y-2378571D01*
X203393571Y-2521428D01*
X202911428Y-3807142D02*
X202706071Y-3878571D01*
X202348928Y-3878571D01*
X202197142Y-3807142D01*
X202116785Y-3735714D01*
X202027500Y-3592857D01*
X202009642Y-3450000D01*
X202063214Y-3307142D01*
X202125714Y-3235714D01*
X202259642Y-3164285D01*
X202536428Y-3092857D01*
X202670357Y-3021428D01*
X202732857Y-2950000D01*
X202786428Y-2807142D01*
X202768571Y-2664285D01*
X202679285Y-2521428D01*
X202598928Y-2450000D01*
X202447142Y-2378571D01*
X202090000Y-2378571D01*
X201884642Y-2450000D01*
D12*
X105925000Y-31000000D02*
G75*
G03X105225000Y-30300000I-700000J0D01*
G01*
X104625000Y-30300000D02*
G75*
G03X103925000Y-31000000I0J-700000D01*
G01*
X103925000Y-32400000D02*
G75*
G03X104625000Y-33100000I700000J0D01*
G01*
X105225000Y-33100000D02*
G75*
G03X105925000Y-32400000I0J700000D01*
G01*
X104625000Y-33100000D02*
X105225000Y-33100000D01*
X103925000Y-31000000D02*
X103925000Y-32400000D01*
X105225000Y-30300000D02*
X104625000Y-30300000D01*
X105925000Y-32400000D02*
X105925000Y-31000000D01*
X144750000Y-22000000D02*
X146150000Y-22000000D01*
X146850000Y-21300000D02*
X146850000Y-20700000D01*
X146150000Y-20000000D02*
X144750000Y-20000000D01*
X144050000Y-20700000D02*
X144050000Y-21300000D01*
X144050000Y-21300000D02*
G75*
G03X144750000Y-22000000I700000J0D01*
G01*
X144750000Y-20000000D02*
G75*
G03X144050000Y-20700000I0J-700000D01*
G01*
X146850000Y-20700000D02*
G75*
G03X146150000Y-20000000I-700000J0D01*
G01*
X146150000Y-22000000D02*
G75*
G03X146850000Y-21300000I0J700000D01*
G01*
X136650000Y-10100000D02*
G75*
G03X137350000Y-9400000I0J700000D01*
G01*
X137350000Y-8800000D02*
G75*
G03X136650000Y-8100000I-700000J0D01*
G01*
X135250000Y-8100000D02*
G75*
G03X134550000Y-8800000I0J-700000D01*
G01*
X134550000Y-9400000D02*
G75*
G03X135250000Y-10100000I700000J0D01*
G01*
X134550000Y-8800000D02*
X134550000Y-9400000D01*
X136650000Y-8100000D02*
X135250000Y-8100000D01*
X137350000Y-9400000D02*
X137350000Y-8800000D01*
X135250000Y-10100000D02*
X136650000Y-10100000D01*
X131300000Y-10100000D02*
G75*
G03X132000000Y-9400000I0J700000D01*
G01*
X132000000Y-8800000D02*
G75*
G03X131300000Y-8100000I-700000J0D01*
G01*
X129900000Y-8100000D02*
G75*
G03X129200000Y-8800000I0J-700000D01*
G01*
X129200000Y-9400000D02*
G75*
G03X129900000Y-10100000I700000J0D01*
G01*
X129200000Y-8800000D02*
X129200000Y-9400000D01*
X131300000Y-8100000D02*
X129900000Y-8100000D01*
X132000000Y-9400000D02*
X132000000Y-8800000D01*
X129900000Y-10100000D02*
X131300000Y-10100000D01*
X158450000Y-26300000D02*
G75*
G03X159150000Y-27000000I700000J0D01*
G01*
X159150000Y-25000000D02*
G75*
G03X158450000Y-25700000I0J-700000D01*
G01*
X162550000Y-25700000D02*
G75*
G03X161850000Y-25000000I-700000J0D01*
G01*
X161850000Y-27000000D02*
G75*
G03X162550000Y-26300000I0J700000D01*
G01*
X159100000Y-27000000D02*
X161900000Y-27000000D01*
X162550000Y-26300000D02*
X162550000Y-25700000D01*
X161900000Y-25000000D02*
X159100000Y-25000000D01*
X158450000Y-25700000D02*
X158450000Y-26300000D01*
X122450000Y-10100000D02*
X123850000Y-10100000D01*
X124550000Y-9400000D02*
X124550000Y-8800000D01*
X123850000Y-8100000D02*
X122450000Y-8100000D01*
X121750000Y-8800000D02*
X121750000Y-9400000D01*
X121750000Y-9400000D02*
G75*
G03X122450000Y-10100000I700000J0D01*
G01*
X122450000Y-8100000D02*
G75*
G03X121750000Y-8800000I0J-700000D01*
G01*
X124550000Y-8800000D02*
G75*
G03X123850000Y-8100000I-700000J0D01*
G01*
X123850000Y-10100000D02*
G75*
G03X124550000Y-9400000I0J700000D01*
G01*
X54700000Y-33100000D02*
X54700000Y-34500000D01*
X55400000Y-35200000D02*
X56000000Y-35200000D01*
X56700000Y-34500000D02*
X56700000Y-33100000D01*
X56000000Y-32400000D02*
X55400000Y-32400000D01*
X55400000Y-32400000D02*
G75*
G03X54700000Y-33100000I0J-700000D01*
G01*
X56700000Y-33100000D02*
G75*
G03X56000000Y-32400000I-700000J0D01*
G01*
X56000000Y-35200000D02*
G75*
G03X56700000Y-34500000I0J700000D01*
G01*
X54700000Y-34500000D02*
G75*
G03X55400000Y-35200000I700000J0D01*
G01*
X97330000Y-88270000D02*
X97330000Y-89600000D01*
X98660000Y-88270000D02*
X97330000Y-88270000D01*
X99930000Y-88270000D02*
X99930000Y-90930000D01*
X99930000Y-90930000D02*
X102530000Y-90930000D01*
X99930000Y-88270000D02*
X102530000Y-88270000D01*
X102530000Y-88270000D02*
X102530000Y-90930000D01*
D13*
X107082142Y-30604761D02*
X107129761Y-30557142D01*
X107177380Y-30414285D01*
X107177380Y-30319047D01*
X107129761Y-30176190D01*
X107034523Y-30080952D01*
X106939285Y-30033333D01*
X106748809Y-29985714D01*
X106605952Y-29985714D01*
X106415476Y-30033333D01*
X106320238Y-30080952D01*
X106225000Y-30176190D01*
X106177380Y-30319047D01*
X106177380Y-30414285D01*
X106225000Y-30557142D01*
X106272619Y-30604761D01*
X106177380Y-30890476D02*
X107177380Y-31223809D01*
X106177380Y-31557142D01*
X106653571Y-32223809D02*
X106701190Y-32366666D01*
X106748809Y-32414285D01*
X106844047Y-32461904D01*
X106986904Y-32461904D01*
X107082142Y-32414285D01*
X107129761Y-32366666D01*
X107177380Y-32271428D01*
X107177380Y-31890476D01*
X106177380Y-31890476D01*
X106177380Y-32223809D01*
X106225000Y-32319047D01*
X106272619Y-32366666D01*
X106367857Y-32414285D01*
X106463095Y-32414285D01*
X106558333Y-32366666D01*
X106605952Y-32319047D01*
X106653571Y-32223809D01*
X106653571Y-31890476D01*
X107129761Y-32842857D02*
X107177380Y-32985714D01*
X107177380Y-33223809D01*
X107129761Y-33319047D01*
X107082142Y-33366666D01*
X106986904Y-33414285D01*
X106891666Y-33414285D01*
X106796428Y-33366666D01*
X106748809Y-33319047D01*
X106701190Y-33223809D01*
X106653571Y-33033333D01*
X106605952Y-32938095D01*
X106558333Y-32890476D01*
X106463095Y-32842857D01*
X106367857Y-32842857D01*
X106272619Y-32890476D01*
X106225000Y-32938095D01*
X106177380Y-33033333D01*
X106177380Y-33271428D01*
X106225000Y-33414285D01*
X147069047Y-23157142D02*
X147116666Y-23204761D01*
X147259523Y-23252380D01*
X147354761Y-23252380D01*
X147497619Y-23204761D01*
X147592857Y-23109523D01*
X147640476Y-23014285D01*
X147688095Y-22823809D01*
X147688095Y-22680952D01*
X147640476Y-22490476D01*
X147592857Y-22395238D01*
X147497619Y-22300000D01*
X147354761Y-22252380D01*
X147259523Y-22252380D01*
X147116666Y-22300000D01*
X147069047Y-22347619D01*
X146688095Y-23204761D02*
X146545238Y-23252380D01*
X146307142Y-23252380D01*
X146211904Y-23204761D01*
X146164285Y-23157142D01*
X146116666Y-23061904D01*
X146116666Y-22966666D01*
X146164285Y-22871428D01*
X146211904Y-22823809D01*
X146307142Y-22776190D01*
X146497619Y-22728571D01*
X146592857Y-22680952D01*
X146640476Y-22633333D01*
X146688095Y-22538095D01*
X146688095Y-22442857D01*
X146640476Y-22347619D01*
X146592857Y-22300000D01*
X146497619Y-22252380D01*
X146259523Y-22252380D01*
X146116666Y-22300000D01*
X145497619Y-22776190D02*
X145497619Y-23252380D01*
X145830952Y-22252380D02*
X145497619Y-22776190D01*
X145164285Y-22252380D01*
X144830952Y-23252380D02*
X144830952Y-22252380D01*
X144259523Y-23252380D01*
X144259523Y-22252380D01*
X143211904Y-23157142D02*
X143259523Y-23204761D01*
X143402380Y-23252380D01*
X143497619Y-23252380D01*
X143640476Y-23204761D01*
X143735714Y-23109523D01*
X143783333Y-23014285D01*
X143830952Y-22823809D01*
X143830952Y-22680952D01*
X143783333Y-22490476D01*
X143735714Y-22395238D01*
X143640476Y-22300000D01*
X143497619Y-22252380D01*
X143402380Y-22252380D01*
X143259523Y-22300000D01*
X143211904Y-22347619D01*
X137116666Y-6450000D02*
X137211904Y-6402380D01*
X137354761Y-6402380D01*
X137497619Y-6450000D01*
X137592857Y-6545238D01*
X137640476Y-6640476D01*
X137688095Y-6830952D01*
X137688095Y-6973809D01*
X137640476Y-7164285D01*
X137592857Y-7259523D01*
X137497619Y-7354761D01*
X137354761Y-7402380D01*
X137259523Y-7402380D01*
X137116666Y-7354761D01*
X137069047Y-7307142D01*
X137069047Y-6973809D01*
X137259523Y-6973809D01*
X136450000Y-6402380D02*
X136259523Y-6402380D01*
X136164285Y-6450000D01*
X136069047Y-6545238D01*
X136021428Y-6735714D01*
X136021428Y-7069047D01*
X136069047Y-7259523D01*
X136164285Y-7354761D01*
X136259523Y-7402380D01*
X136450000Y-7402380D01*
X136545238Y-7354761D01*
X136640476Y-7259523D01*
X136688095Y-7069047D01*
X136688095Y-6735714D01*
X136640476Y-6545238D01*
X136545238Y-6450000D01*
X136450000Y-6402380D01*
X135592857Y-6402380D02*
X135592857Y-7211904D01*
X135545238Y-7307142D01*
X135497619Y-7354761D01*
X135402380Y-7402380D01*
X135211904Y-7402380D01*
X135116666Y-7354761D01*
X135069047Y-7307142D01*
X135021428Y-7211904D01*
X135021428Y-6402380D01*
X134688095Y-6402380D02*
X134116666Y-6402380D01*
X134402380Y-7402380D02*
X134402380Y-6402380D01*
X131957142Y-6903571D02*
X131814285Y-6951190D01*
X131766666Y-6998809D01*
X131719047Y-7094047D01*
X131719047Y-7236904D01*
X131766666Y-7332142D01*
X131814285Y-7379761D01*
X131909523Y-7427380D01*
X132290476Y-7427380D01*
X132290476Y-6427380D01*
X131957142Y-6427380D01*
X131861904Y-6475000D01*
X131814285Y-6522619D01*
X131766666Y-6617857D01*
X131766666Y-6713095D01*
X131814285Y-6808333D01*
X131861904Y-6855952D01*
X131957142Y-6903571D01*
X132290476Y-6903571D01*
X131100000Y-6427380D02*
X130909523Y-6427380D01*
X130814285Y-6475000D01*
X130719047Y-6570238D01*
X130671428Y-6760714D01*
X130671428Y-7094047D01*
X130719047Y-7284523D01*
X130814285Y-7379761D01*
X130909523Y-7427380D01*
X131100000Y-7427380D01*
X131195238Y-7379761D01*
X131290476Y-7284523D01*
X131338095Y-7094047D01*
X131338095Y-6760714D01*
X131290476Y-6570238D01*
X131195238Y-6475000D01*
X131100000Y-6427380D01*
X130242857Y-6427380D02*
X130242857Y-7236904D01*
X130195238Y-7332142D01*
X130147619Y-7379761D01*
X130052380Y-7427380D01*
X129861904Y-7427380D01*
X129766666Y-7379761D01*
X129719047Y-7332142D01*
X129671428Y-7236904D01*
X129671428Y-6427380D01*
X129338095Y-6427380D02*
X128766666Y-6427380D01*
X129052380Y-7427380D02*
X129052380Y-6427380D01*
X167723809Y-26257142D02*
X167771428Y-26304761D01*
X167914285Y-26352380D01*
X168009523Y-26352380D01*
X168152380Y-26304761D01*
X168247619Y-26209523D01*
X168295238Y-26114285D01*
X168342857Y-25923809D01*
X168342857Y-25780952D01*
X168295238Y-25590476D01*
X168247619Y-25495238D01*
X168152380Y-25400000D01*
X168009523Y-25352380D01*
X167914285Y-25352380D01*
X167771428Y-25400000D01*
X167723809Y-25447619D01*
X167295238Y-26352380D02*
X167295238Y-25352380D01*
X166866666Y-26352380D02*
X166866666Y-25828571D01*
X166914285Y-25733333D01*
X167009523Y-25685714D01*
X167152380Y-25685714D01*
X167247619Y-25733333D01*
X167295238Y-25780952D01*
X166390476Y-26352380D02*
X166390476Y-25685714D01*
X166390476Y-25876190D02*
X166342857Y-25780952D01*
X166295238Y-25733333D01*
X166200000Y-25685714D01*
X166104761Y-25685714D01*
X165628571Y-26352380D02*
X165723809Y-26304761D01*
X165771428Y-26257142D01*
X165819047Y-26161904D01*
X165819047Y-25876190D01*
X165771428Y-25780952D01*
X165723809Y-25733333D01*
X165628571Y-25685714D01*
X165485714Y-25685714D01*
X165390476Y-25733333D01*
X165342857Y-25780952D01*
X165295238Y-25876190D01*
X165295238Y-26161904D01*
X165342857Y-26257142D01*
X165390476Y-26304761D01*
X165485714Y-26352380D01*
X165628571Y-26352380D01*
X164866666Y-26352380D02*
X164866666Y-25685714D01*
X164866666Y-25780952D02*
X164819047Y-25733333D01*
X164723809Y-25685714D01*
X164580952Y-25685714D01*
X164485714Y-25733333D01*
X164438095Y-25828571D01*
X164438095Y-26352380D01*
X164438095Y-25828571D02*
X164390476Y-25733333D01*
X164295238Y-25685714D01*
X164152380Y-25685714D01*
X164057142Y-25733333D01*
X164009523Y-25828571D01*
X164009523Y-26352380D01*
X163104761Y-26352380D02*
X163104761Y-25828571D01*
X163152380Y-25733333D01*
X163247619Y-25685714D01*
X163438095Y-25685714D01*
X163533333Y-25733333D01*
X163104761Y-26304761D02*
X163200000Y-26352380D01*
X163438095Y-26352380D01*
X163533333Y-26304761D01*
X163580952Y-26209523D01*
X163580952Y-26114285D01*
X163533333Y-26019047D01*
X163438095Y-25971428D01*
X163200000Y-25971428D01*
X163104761Y-25923809D01*
X124269047Y-7402380D02*
X124602380Y-6926190D01*
X124840476Y-7402380D02*
X124840476Y-6402380D01*
X124459523Y-6402380D01*
X124364285Y-6450000D01*
X124316666Y-6497619D01*
X124269047Y-6592857D01*
X124269047Y-6735714D01*
X124316666Y-6830952D01*
X124364285Y-6878571D01*
X124459523Y-6926190D01*
X124840476Y-6926190D01*
X123650000Y-6402380D02*
X123459523Y-6402380D01*
X123364285Y-6450000D01*
X123269047Y-6545238D01*
X123221428Y-6735714D01*
X123221428Y-7069047D01*
X123269047Y-7259523D01*
X123364285Y-7354761D01*
X123459523Y-7402380D01*
X123650000Y-7402380D01*
X123745238Y-7354761D01*
X123840476Y-7259523D01*
X123888095Y-7069047D01*
X123888095Y-6735714D01*
X123840476Y-6545238D01*
X123745238Y-6450000D01*
X123650000Y-6402380D01*
X122792857Y-6402380D02*
X122792857Y-7211904D01*
X122745238Y-7307142D01*
X122697619Y-7354761D01*
X122602380Y-7402380D01*
X122411904Y-7402380D01*
X122316666Y-7354761D01*
X122269047Y-7307142D01*
X122221428Y-7211904D01*
X122221428Y-6402380D01*
X121888095Y-6402380D02*
X121316666Y-6402380D01*
X121602380Y-7402380D02*
X121602380Y-6402380D01*
X54066666Y-32109523D02*
X54066666Y-32585714D01*
X54352380Y-32014285D02*
X53352380Y-32347619D01*
X54352380Y-32680952D01*
X54352380Y-33490476D02*
X54352380Y-33014285D01*
X53352380Y-33014285D01*
X54304761Y-33776190D02*
X54352380Y-33919047D01*
X54352380Y-34157142D01*
X54304761Y-34252380D01*
X54257142Y-34300000D01*
X54161904Y-34347619D01*
X54066666Y-34347619D01*
X53971428Y-34300000D01*
X53923809Y-34252380D01*
X53876190Y-34157142D01*
X53828571Y-33966666D01*
X53780952Y-33871428D01*
X53733333Y-33823809D01*
X53638095Y-33776190D01*
X53542857Y-33776190D01*
X53447619Y-33823809D01*
X53400000Y-33871428D01*
X53352380Y-33966666D01*
X53352380Y-34204761D01*
X53400000Y-34347619D01*
X53352380Y-34680952D02*
X54352380Y-34919047D01*
X53638095Y-35109523D01*
X54352380Y-35300000D01*
X53352380Y-35538095D01*
X96496666Y-87766666D02*
X96496666Y-88242857D01*
X96782380Y-87671428D02*
X95782380Y-88004761D01*
X96782380Y-88338095D01*
X96115714Y-89100000D02*
X96782380Y-89100000D01*
X96115714Y-88671428D02*
X96639523Y-88671428D01*
X96734761Y-88719047D01*
X96782380Y-88814285D01*
X96782380Y-88957142D01*
X96734761Y-89052380D01*
X96687142Y-89100000D01*
X96782380Y-90004761D02*
X95782380Y-90004761D01*
X96734761Y-90004761D02*
X96782380Y-89909523D01*
X96782380Y-89719047D01*
X96734761Y-89623809D01*
X96687142Y-89576190D01*
X96591904Y-89528571D01*
X96306190Y-89528571D01*
X96210952Y-89576190D01*
X96163333Y-89623809D01*
X96115714Y-89719047D01*
X96115714Y-89909523D01*
X96163333Y-90004761D01*
X96782380Y-90480952D02*
X96115714Y-90480952D01*
X95782380Y-90480952D02*
X95830000Y-90433333D01*
X95877619Y-90480952D01*
X95830000Y-90528571D01*
X95782380Y-90480952D01*
X95877619Y-90480952D01*
X96782380Y-91100000D02*
X96734761Y-91004761D01*
X96687142Y-90957142D01*
X96591904Y-90909523D01*
X96306190Y-90909523D01*
X96210952Y-90957142D01*
X96163333Y-91004761D01*
X96115714Y-91100000D01*
X96115714Y-91242857D01*
X96163333Y-91338095D01*
X96210952Y-91385714D01*
X96306190Y-91433333D01*
X96591904Y-91433333D01*
X96687142Y-91385714D01*
X96734761Y-91338095D01*
X96782380Y-91242857D01*
X96782380Y-91100000D01*
M02*
